# xmcd
#
# Track frame offsets:
#	150
#	5795
#	11440
#	17085
#	25004
#	32923
#	40842
#	46677
#	52512
#	58347
#	66570
#	74793
#	83016
#	90726
#	98436
#
# Disc length: 1413 seconds
#
# Revision: 1
# Processed by: cddbd v1.5.2PL0 Copyright (c) Steve Scherf et al.
# Submitted via: audiograbber 1.80.04
#
DISCID=b905830f
DTITLE=Justin Sandercoe - Really useful Blues Solos
DYEAR=2007
DGENRE=
TTITLE0=Albert King Style - all
TTITLE1=Albert King Style - minus rhythm
TTITLE2=Albert King Style - minus lead
TTITLE3=Eric Clapton Style - all
TTITLE4=Eric Clapton Style - minus rhythm
TTITLE5=Eric Clapton Style - minus lead
TTITLE6=Chuck Berry Style - all
TTITLE7=Chuck Berry Style - minus rhythm
TTITLE8=Chuck Berry Style - minus lead
TTITLE9=Jimi Hendrix Style - all
TTITLE10=Jimi Hendrix Style - minus rhythm
TTITLE11=Jimi Hendrix Style - minus lead
TTITLE12=Stevie Ray Vaughan Style - all
TTITLE13=Stevie Ray Vaughan Style - minus rhythm
TTITLE14=Stevie Ray Vaughan Style - minus lead
EXTD=See www.justinguitar.com
EXTT0=
EXTT1=
EXTT2=
EXTT3=
EXTT4=
EXTT5=
EXTT6=
EXTT7=
EXTT8=
EXTT9=
EXTT10=
EXTT11=
EXTT12=
EXTT13=
EXTT14=
PLAYORDER=
